<svg xmlns="http://www.w3.org/2000/svg" viewBox="0 0 512 512" role="img" aria-labelledby="title desc">
  <title id="title">Zhushen icon</title>
  <desc id="desc">主神应用图标，采用六边形能量核心与简化的 ZS 几何闪电结构，适合在 512 视口和小尺寸图标中保持清晰。</desc>
  <defs>
    <linearGradient id="icon-bg" x1="84" y1="76" x2="428" y2="436" gradientUnits="userSpaceOnUse">
      <stop offset="0" stop-color="#6D5EF9"/>
      <stop offset="0.52" stop-color="#3B82F6"/>
      <stop offset="1" stop-color="#06B6D4"/>
    </linearGradient>
    <linearGradient id="icon-core" x1="176" y1="168" x2="336" y2="344" gradientUnits="userSpaceOnUse">
      <stop offset="0" stop-color="#FFFFFF"/>
      <stop offset="1" stop-color="#D9F2FF"/>
    </linearGradient>
    <filter id="icon-shadow" x="-20%" y="-20%" width="140%" height="140%">
      <feDropShadow dx="0" dy="16" stdDeviation="18" flood-color="#1E1B4B" flood-opacity="0.2"/>
    </filter>
  </defs>

  <rect width="512" height="512" rx="128" fill="#081226"/>
  <rect x="28" y="28" width="456" height="456" rx="112" fill="#0F1B35"/>

  <g filter="url(#icon-shadow)">
    <path d="M256 84 394 164V324L256 404 118 324V164L256 84Z" fill="url(#icon-bg)"/>
    <path d="M256 138 347 190.5V297.5L256 350 165 297.5V190.5L256 138Z" fill="#FFFFFF" fill-opacity="0.1"/>
    <path d="M256 170 317 205V275L256 310 195 275V205L256 170Z" fill="url(#icon-core)"/>
  </g>

  <path d="M182 178H323L238 250H332L192 351H285L210 413" fill="none" stroke="#FFFFFF" stroke-width="34" stroke-linecap="round" stroke-linejoin="round"/>
  <path d="M256 126V386" fill="none" stroke="#FFFFFF" stroke-opacity="0.22" stroke-width="16" stroke-linecap="round"/>
  <circle cx="256" cy="256" r="16" fill="#2563EB" fill-opacity="0.26"/>
</svg>
